:SAMPLES-PER-SECOND 30
:FULLY-SPECIFIED
:DEGREES
304
root  -35.6766 23.9127 -23.1557 -168.799 84.2894 163.761
RightUpLeg  -62.9065 -14.2844 14.0195
RightLeg  111.228 0.905578 -2.3308
RightFoot  -21.46 -0.264672 -1.01915
RightToes  -37.8259 -0.201353 -0.302514
Spine  16.8919 -8.18829 -5.19566
Spine1  29.6544 -20.1629 -2.03836
HEad  0.166031 -19.461 35.1418
LeftShoulder1  0 -2.42657e-020 -4.95415e-022
LeftArm  -31.5259 -57.2278 -66.2943
LeftForeArm  35.5544 -15.8272 -2.85443
LeftHand  0.367406 -8.13681 -5.53669
RightShoulder  0 2.42657e-020 1.07489e-018
RightArm  -9.71329 14.7288 94.6379
RightForeArm  39.6876 48.9175 11.6864
RightHand  -2.09437 23.0096 -9.89599
LeftUpLeg  -48.8652 -1.9476 21.6511
LeftLeg  74.9788 0.897522 2.62871
LeftFoot  -36.8983 -0.842963 -2.52645
LeftToes  -47.7908 2.01279e-006 2.21547e-008
305
root  -32.8647 24.291 -24.2315 -157.257 84.7776 174.834
RightUpLeg  -78.1322 -14.2555 22.3671
RightLeg  108.721 1.82496 -6.17111
RightFoot  -24.2477 -0.0791165 0.00925243
RightToes  -34.5313 -0.176336 -0.282194
Spine  18.7392 -7.74276 -3.20211
Spine1  31.4969 -19.8262 0.253358
HEad  -2.83961 -18.3432 35.7786
LeftShoulder1  0 -2.42657e-020 -4.95415e-022
LeftArm  -27.1703 -61.5098 -77.2825
LeftForeArm  33.8871 -14.3361 -2.57437
LeftHand  0.345253 -6.94663 -6.05965
RightShoulder  0 2.42657e-020 1.07489e-018
RightArm  -13.7051 25.4279 90.5298
RightForeArm  31.6948 46.0885 10.5705
RightHand  -1.80466 20.9747 -9.35925
LeftUpLeg  -41.7381 -3.90622 20.1152
LeftLeg  71.795 1.46907 3.63427
LeftFoot  -38.8454 -1.11842 -3.1712
LeftToes  -46.2638 2.01279e-006 2.21547e-008
306
root  -29.6514 24.6774 -25.3137 -161.755 85.3478 171.208
RightUpLeg  -89.5146 -12.6558 25.5565
RightLeg  102.195 1.05887 -6.10779
RightFoot  -24.3044 -0.220841 -0.648017
RightToes  -29.1588 -0.138172 -0.246077
Spine  21.2207 -7.17843 -1.34337
Spine1  34.6632 -19.3338 2.56858
HEad  -5.39527 -17.5437 34.9326
LeftShoulder1  0 -2.42657e-020 -4.95415e-022
LeftArm  -20.7737 -65.2863 -87.8469
LeftForeArm  33.3419 -13.377 -2.39585
LeftHand  0.364942 -6.83707 -6.48004
RightShoulder  0 2.42657e-020 1.07489e-018
RightArm  -19.5134 36.5373 84.8152
RightForeArm  27.3562 41.8764 9.10479
RightHand  -1.67097 19.7401 -9.21503
LeftUpLeg  -32.5012 -7.6092 16.4021
LeftLeg  67.6954 2.74382 5.59473
LeftFoot  -37.0128 -1.47294 -4.3986
LeftToes  -48.251 2.01279e-006 2.21547e-008
307
root  -26.2456 25.0653 -26.1935 -168.776 85.2614 164.02
RightUpLeg  -97.9455 -9.7908 26.0862
RightLeg  91.1695 -0.0465076 -3.65794
RightFoot  -22.0998 -0.469669 -2.02722
RightToes  -32.1572 -0.159054 -0.266676
Spine  22.1858 -6.48624 0.804577
Spine1  35.4194 -18.4466 5.05365
HEad  -6.92045 -18.0618 33.7033
LeftShoulder1  0 -2.42657e-020 -4.95415e-022
LeftArm  -11.2535 -65.4886 -98.6114
LeftForeArm  32.9826 -13.7579 -2.467
LeftHand  0.184556 -6.56374 -3.59139
RightShoulder  0 2.42657e-020 1.07489e-018
RightArm  -27.9002 43.9136 75.3862
RightForeArm  20.2894 38.2818 8.0036
RightHand  -1.18196 18.4961 -6.88199
LeftUpLeg  -24.2501 -7.85944 13.1916
LeftLeg  62.0772 2.83909 4.59091
LeftFoot  -31.3515 -1.04934 -3.73801
LeftToes  -55.9382 2.01279e-006 2.21547e-008
308
root  -22.6493 25.3234 -27.0091 179.891 84.1699 152.206
RightUpLeg  -102.696 -7.52154 23.6275
RightLeg  77.2008 -1.19993 -4.33839
RightFoot  -19.5956 -0.36154 -1.71586
RightToes  -30.8043 -0.149498 -0.257517
Spine  22.3553 -6.12442 3.00979
Spine1  35.1441 -18.237 7.82758
HEad  -7.21332 -18.9706 32.065
LeftShoulder1  0 -2.42657e-020 -4.95415e-022
LeftArm  -5.10516 -63.7882 -103.98
LeftForeArm  30.5578 -15.6574 -2.8259
LeftHand  0.139113 -6.16668 -2.95539
RightShoulder  0 2.42657e-020 1.07489e-018
RightArm  -38.2817 48.462 63.2124
RightForeArm  16.3605 34.6662 7.00321
RightHand  -0.825829 18.9736 -4.57048
LeftUpLeg  -16.9309 -6.19883 10.5791
LeftLeg  56.0158 1.35056 1.73973
LeftFoot  -21.8355 -0.46525 -2.41165
LeftToes  -67.1189 2.01279e-006 2.21547e-008
309
root  -18.9264 25.5013 -27.9747 166.227 81.2534 137.8
RightUpLeg  -105.097 -7.52922 18.3187
RightLeg  63.1628 -3.0406 -5.24618
RightFoot  -14.0892 -0.239778 -1.5627
RightToes  -30.6482 -0.14841 -0.256446
Spine  22.6159 -6.31036 4.95325
Spine1  35.6244 -18.956 10.3497
HEad  -10.6488 -18.7528 31.2
LeftShoulder1  0 -2.42657e-020 -4.95415e-022
LeftArm  -2.68232 -63.639 -106.366
LeftForeArm  28.8663 -17.8816 -3.25421
LeftHand  0.195212 -7.01018 -3.55969
RightShoulder  0 2.42657e-020 1.07489e-018
RightArm  -52.2001 52.0528 51.0959
RightForeArm  15.3491 32.1465 6.35882
RightHand  -0.621786 19.0031 -3.34486
LeftUpLeg  -11.8518 -9.04358 6.12411
LeftLeg  52.6334 0.8657 0.985905
LeftFoot  -8.56839 -0.178248 -2.37907
LeftToes  -67.6225 2.01279e-006 2.21547e-008
310
root  -15.0201 25.3119 -28.839 162.839 79.0695 134.347
RightUpLeg  -105.15 -7.49082 12.6385
RightLeg  54.5146 -2.67087 -3.33469
RightFoot  -7.55112 -0.187152 -2.4581
RightToes  -37.1787 -0.196347 -0.298636
Spine  23.17 -5.97621 7.46994
Spine1  36.1272 -18.7252 13.7318
HEad  -14.7362 -19.7275 29.3375
LeftShoulder1  0 -2.42657e-020 -4.95415e-022
LeftArm  -1.8871 -62.1097 -106.966
LeftForeArm  26.2317 -21.8198 -4.04103
LeftHand  0.146936 -7.46189 -2.6254
RightShoulder  0 2.42657e-020 1.07489e-018
RightArm  -68.2636 54.1677 39.9231
RightForeArm  13.4985 30.1604 5.87582
RightHand  -0.576988 17.0867 -3.47072
LeftUpLeg  -7.03283 -9.12847 3.97745
LeftLeg  51.0494 -1.57043 -1.71288
LeftFoot  4.02254 0.101154 -2.87984
LeftToes  -59.1678 2.01279e-006 2.21547e-008
311
root  -11.0887 24.7494 -29.6947 156.843 77.3605 129.154
RightUpLeg  -103.787 -6.68195 4.6773
RightLeg  55.3512 -1.38796 -1.81983
RightFoot  -6.15326 -0.145522 -2.32966
RightToes  -39.1377 -0.211632 -0.3102
Spine  23.292 -5.61365 9.42475
Spine1  36.2774 -17.9312 15.0617
HEad  -15.7691 -21.8841 26.3643
LeftShoulder1  0 -2.42657e-020 -4.95415e-022
LeftArm  -4.992 -57.8122 -102.569
LeftForeArm  22.0297 -26.8343 -5.11107
LeftHand  0.00458021 -6.61108 -0.449717
RightShoulder  0 2.42657e-020 1.07489e-018
RightArm  -78.8063 54.9999 34.7401
RightForeArm  19.8391 29.4049 5.69996
RightHand  -1.40435 15.3866 -10.0022
LeftUpLeg  -2.71 -5.84037 3.10006
LeftLeg  52.753 -11.942 -13.4295
LeftFoot  13.3975 0.861343 -7.32383
LeftToes  -44.9487 2.01279e-006 2.21547e-008
312
root  -7.27281 23.9929 -30.5611 155.213 74.2602 128.011
RightUpLeg  -101.684 -7.79138 0.550585
RightLeg  61.8505 -3.20878 -5.24814
RightFoot  -6.64395 -0.113339 -1.57505
RightToes  -32.3503 -0.160436 -0.267965
Spine  22.7054 -5.53367 10.8644
Spine1  35.1029 -17.9283 16.4289
HEad  -18.0408 -24.626 25.7843
LeftShoulder1  0 -2.42657e-020 -4.95415e-022
LeftArm  -7.713 -52.4899 -97.7738
LeftForeArm  20.2923 -30.8854 -6.04858
LeftHand  -0.0396005 -6.95992 0.281526
RightShoulder  0 2.42657e-020 1.07489e-018
RightArm  -74.4957 50.6722 36.1838
RightForeArm  22.9729 36.3345 7.45371
RightHand  -2.98245 12.8553 -25.6655
LeftUpLeg  -2.55641 -3.51833 2.41541
LeftLeg  61.1032 -16.4651 -23.9295
LeftFoot  11.2929 0.917315 -9.25805
LeftToes  -43.2641 2.01279e-006 2.21547e-008
313
root  -3.46754 22.934 -31.3017 147.967 73.7451 121.862
RightUpLeg  -99.5541 -6.98145 0.821457
RightLeg  66.9576 -1.85344 -3.81141
RightFoot  4.93433 0.152939 -3.17042
RightToes  -5.45118 -0.0159961 -0.0508564
Spine  23.3279 -3.9332 11.917
Spine1  35.9525 -14.935 17.5263
HEad  -22.9288 -27.5688 26.9533
LeftShoulder1  0 -2.42657e-020 -4.95415e-022
LeftArm  -7.95266 -49.6366 -95.3134
LeftForeArm  20.1597 -33.1046 -6.5972
LeftHand  -0.0112762 -7.2736 -0.19273
RightShoulder  0 2.42657e-020 1.07489e-018
RightArm  -75.5982 46.0659 30.0554
RightForeArm  40.3541 40.0644 8.52392
RightHand  -4.91473 13.1042 -40.6242
LeftUpLeg  -3.14265 2.46073 1.9506
LeftLeg  69.5572 -9.14245 -19.5488
LeftFoot  6.13856 0.275493 -5.13443
LeftToes  -54.468 2.01279e-006 2.21547e-008
